0
SECTION
2
HEADER
9
$INSUNITS
70
4
9
$ACADVER
1
AC1014
9
$HANDSEED
5
FFFF
0
ENDSEC
0
SECTION
2
TABLES
0
TABLE
2
VPORT
5
8
100
AcDbSymbolTable
0
ENDTAB
0
TABLE
2
LTYPE
5
5
100
AcDbSymbolTable
0
LTYPE
5
14
100
AcDbSymbolTableRecord
100
AcDbLinetypeTableRecord
2
BYBLOCK
70
0
0
LTYPE
5
15
100
AcDbSymbolTableRecord
100
AcDbLinetypeTableRecord
2
BYLAYER
70
0
0
LTYPE
5
16
100
AcDbSymbolTableRecord
100
AcDbLinetypeTableRecord
2
DASHED
70
0
3
Dashed __ __ __ __ __ __ __ __ __ __ __ __ __ _
72
65
73
2
40
0.75
49
0.5
74
0
49
-0.25
74
0
0
ENDTAB
0
TABLE
2
LAYER
5
2
100
AcDbSymbolTable
70
2
0
LAYER
5
50
100
AcDbSymbolTableRecord
100
AcDbLayerTableRecord
2
0
70
0
62
7
6
CONTINUOUS
0
ENDTAB
0
TABLE
2
STYLE
5
3
100
AcDbSymbolTable
70
1
0
STYLE
5
11
100
AcDbSymbolTableRecord
100
AcDbTextStyleTableRecord
2
STANDARD
70
0
0
ENDTAB
0
TABLE
2
VIEW
5
6
100
AcDbSymbolTable
70
0
0
ENDTAB
0
TABLE
2
UCS
5
7
100
AcDbSymbolTable
70
0
0
ENDTAB
0
TABLE
2
APPID
5
9
100
AcDbSymbolTable
70
2
0
APPID
5
12
100
AcDbSymbolTableRecord
100
AcDbRegAppTableRecord
2
ACAD
70
0
0
ENDTAB
0
TABLE
2
DIMSTYLE
5
A
100
AcDbSymbolTable
70
1
0
ENDTAB
0
TABLE
2
BLOCK_RECORD
5
1
100
AcDbSymbolTable
70
1
0
BLOCK_RECORD
5
1F
100
AcDbSymbolTableRecord
100
AcDbBlockTableRecord
2
*MODEL_SPACE
0
BLOCK_RECORD
5
1B
100
AcDbSymbolTableRecord
100
AcDbBlockTableRecord
2
*PAPER_SPACE
0
ENDTAB
0
ENDSEC
0
SECTION
2
BLOCKS
0
BLOCK
5
20
100
AcDbEntity
100
AcDbBlockBegin
2
*MODEL_SPACE
0
ENDBLK
5
21
100
AcDbEntity
100
AcDbBlockEnd
0
BLOCK
5
1C
100
AcDbEntity
100
AcDbBlockBegin
2
*PAPER_SPACE
0
ENDBLK
5
1D
100
AcDbEntity
100
AcDbBlockEnd
0
ENDSEC
0
SECTION
2
ENTITIES
0
LINE
5
100
100
AcDbEntity
8
0
100
AcDbLine
10
-29.440001398324966
20
5.7600002735853195
30
0
11
-21.000000312924385
21
5.7600002735853195
31
0
0
LINE
5
101
100
AcDbEntity
8
0
100
AcDbLine
10
-20.917962603406068
20
5.2904090775205495
30
0
11
-29.439708220900069
21
5.2532257117866097
31
0
0
LINE
5
102
100
AcDbEntity
8
0
100
AcDbLine
10
-29.439708220900069
20
5.2532257117866097
30
0
11
-29.439708220900037
21
-1.4432257117867597
31
0
0
LINE
5
103
100
AcDbEntity
8
0
100
AcDbLine
10
-29.439708220900037
20
-1.4432257117867597
30
0
11
-20.917962603406025
21
-1.4804090775206298
31
0
0
ELLIPSE
5
104
100
AcDbEntity
8
0
100
AcDbEllipse
10
-19.786599969329195
20
-2.0574175346014858
30
0
11
9.9512065254714344e-12
21
1.2700175347911726
31
0.0
40
0.99999048072073438
41
5.1752836113312934
42
7.3823604398539144
0
LINE
5
105
100
AcDbEntity
8
0
100
AcDbLine
10
-18.650245224333354
20
-1.4903039240077165
30
0
11
-5.1053999403417105
21
-1.5494048357938406
31
0
0
LINE
5
106
100
AcDbEntity
8
0
100
AcDbLine
10
-5.1053999403417105
20
-1.5494048357938406
30
0
11
-5.1053999403417185
21
-0.3497428283973017
31
0
0
LINE
5
107
100
AcDbEntity
8
0
100
AcDbLine
10
-5.1053999403417185
20
-0.3497428283973017
30
0
11
-17.805399940341715
21
-0.050800000000023778
31
0
0
LINE
5
108
100
AcDbEntity
8
0
100
AcDbLine
10
-17.805399940341715
20
-0.050800000000023778
30
0
11
-17.805399940341729
21
3.8607999999999763
31
0
0
LINE
5
109
100
AcDbEntity
8
0
100
AcDbLine
10
-17.805399940341729
20
3.8607999999999763
30
0
11
-5.1053999403417105
21
4.1597428283973521
31
0
0
LINE
5
110
100
AcDbEntity
8
0
100
AcDbLine
10
-5.1053999403417105
20
4.1597428283973521
30
0
11
-5.1053999403417389
21
5.3594048357938906
31
0
0
LINE
5
111
100
AcDbEntity
8
0
100
AcDbLine
10
-5.1053999403417389
20
5.3594048357938906
30
0
11
-18.650245224333361
21
5.3003039240076539
31
0
0
ELLIPSE
5
112
100
AcDbEntity
8
0
100
AcDbEllipse
10
-19.786599969329227
20
5.8674175346014303
30
0
11
6.5409483385181504e-12
21
-1.2700175347911955
31
0.0
40
0.9999904807207346
41
5.1840101745079545
42
7.3910870030305658
0
LWPOLYLINE
5
113
100
AcDbEntity
8
0
100
AcDbPolyline
90
4
70
1
43
0.0
10
-2.1081999403418097
20
3.5559999999999747
10
-2.1081999403417955
20
0.25399999999997813
10
-1.0667999403417978
20
0.25399999999998146
10
-1.0667999403418116
20
3.5559999999999778
0
SPLINE
5
114
100
AcDbEntity
8
0
100
AcDbSpline
70
0
71
3
72
14
73
10
74
0
42
0.000000001
43
0.0000000001
44
0.0000000001
40
-0.24743626355430876
40
-0.24743626355430876
40
-0.24743626355430876
40
-0.24743626355430876
40
-0.22733394230363918
40
-0.22733394230363918
40
-0.20723053778357273
40
-0.20723053778357273
40
-0.18805528122971565
40
-0.18805528122971565
40
-0.16888002467585855
40
-0.16888002467585855
40
-0.16888002467585855
40
-0.16888002467585855
10
-18.650245224333364
20
5.300303924007653
30
0
10
-18.620323985795288
20
5.3602606398364969
30
0
10
-18.593530847543448
20
5.4270976265171793
30
0
10
-18.554226618669141
20
5.5534947799789833
30
0
10
-18.541441842848538
20
5.6129197463204061
30
0
10
-18.526211187474512
20
5.7049392048378795
30
0
10
-18.522331013545376
20
5.7440987333502243
30
0
10
-18.518337168801416
20
5.7960652039029252
30
0
10
-18.517950603347376
20
5.808826365587489
30
0
10
-18.517949089424803
20
5.8088763426626189
30
0
0
LINE
5
115
100
AcDbEntity
8
0
100
AcDbLine
10
-18.650245224333364
20
5.300303924007653
30
0
11
-5.1053999403417389
21
5.3594048357938906
31
0
0
LINE
5
116
100
AcDbEntity
8
0
100
AcDbLine
10
-5.1053999403417389
20
5.3594048357938906
30
0
11
-5.1053999403417452
21
5.8674000000039692
31
0
0
LINE
5
117
100
AcDbEntity
8
0
100
AcDbLine
10
-5.1053999403417452
20
5.8674000000039692
30
0
11
-18.5179490894248
21
5.8088763426626198
31
0
0
LINE
5
118
100
AcDbEntity
8
0
100
AcDbLine
10
-21.054691776148072
20
5.7978076443785875
30
0
11
-29.439708220900052
21
5.7612208759927448
31
0
0
ELLIPSE
5
119
100
AcDbEntity
8
0
100
AcDbEllipse
10
-29.438549035019001
20
5.2532232816840132
30
0
11
-0.0011591812912951889
21
0.5079975943234023
31
0.0
40
0.0022231397221637245
41
4.0640734369047248e-06
42
0.78539505198142545
0
ELLIPSE
5
120
100
AcDbEntity
8
0
100
AcDbEllipse
10
-29.438819642029554
20
5.2827170074252709
30
0
11
0.00095482417565687127
21
-0.46528366883295147
31
0.0
40
0.0020439293262759918
41
3.9248296906066416
42
4.7758107777143337
0
LINE
5
121
100
AcDbEntity
8
0
100
AcDbLine
10
-29.439708220900052
20
5.2532257117785122
30
0
11
-20.917962603406068
21
5.2904090775205495
31
0
0
SPLINE
5
122
100
AcDbEntity
8
0
100
AcDbSpline
70
0
71
3
72
14
73
10
74
0
42
0.000000001
43
0.0000000001
44
0.0000000001
40
0.16903795100484501
40
0.16903795100484501
40
0.16903795100484501
40
0.16903795100484501
40
0.18815362780045716
40
0.18815362780045716
40
0.20726930459606932
40
0.20726930459606932
40
0.2274477515738112
40
0.2274477515738112
40
0.24762511528210154
40
0.24762511528210154
40
0.24762511528210154
40
0.24762511528210154
10
-21.054691776148058
20
5.7978076443785866
30
0
10
-21.054689821725677
20
5.7977576825908557
30
0
10
-21.054193849923774
20
5.785078929960175
30
0
10
-21.04978252106735
20
5.7334565188427593
30
0
10
-21.045597074051553
20
5.6945610277618153
30
0
10
-21.02967519919309
20
5.6029289335340735
30
0
10
-21.016396213242203
20
5.54351322584965
30
0
10
-20.975956278707386
20
5.4171416692672656
30
0
10
-20.94851955952814
20
5.3503252319701433
30
0
10
-20.917962603406053
20
5.2904090775205583
30
0
0
LWPOLYLINE
5
123
100
AcDbEntity
8
0
100
AcDbPolyline
90
4
70
1
43
0.0
10
-29.692599940341722
20
5.2532257117866079
10
-29.439708220900069
20
5.2532257117866088
10
-29.439708220900037
20
-1.4432257117867595
10
-29.692599940341701
20
-1.4432257117867597
0
LINE
5
124
100
AcDbEntity
8
0
100
AcDbLine
10
-20.917962603406025
20
-1.4804090775206298
30
0
11
-29.439708220900037
21
-1.4432257117867588
31
0
0
ELLIPSE
5
125
100
AcDbEntity
8
0
100
AcDbEllipse
10
-29.438549035019111
20
-1.4432236472439026
30
0
11
-0.0011293555110198411
21
-0.50799766150618941
31
0.0
40
0.0022818521617582036
41
4.7123981173660621
42
5.4977891052658459
0
ELLIPSE
5
126
100
AcDbEntity
8
0
100
AcDbEllipse
10
-29.438819642028605
20
-1.5144298771312334
30
0
11
0.00088873366274194276
21
0.43679100364499879
31
0.0
40
0.0023192851315922331
41
2.2907643546358312
42
3.1417454417444697
0
LINE
5
127
100
AcDbEntity
8
0
100
AcDbLine
10
-29.439708220900023
20
-1.9512208759928908
30
0
11
-21.054691776148044
21
-1.987807644378661
31
0
0
SPLINE
5
128
100
AcDbEntity
8
0
100
AcDbSpline
70
0
71
3
72
14
73
10
74
0
42
0.000000001
43
0.0000000001
44
0.0000000001
40
0.25951723358521422
40
0.25951723358521422
40
0.25951723358521422
40
0.25951723358521422
40
0.27963008441553844
40
0.27963008441553844
40
0.29974401851528887
40
0.29974401851528887
40
0.31892394339096497
40
0.31892394339096497
40
0.33810386826664102
40
0.33810386826664102
40
0.33810386826664102
40
0.33810386826664102
10
-20.917962603406025
20
-1.4804090775206262
30
0
10
-20.948421861589757
20
-1.5401336653560076
30
0
10
-20.975794764461124
20
-1.6067394692314394
30
0
10
-21.016193577336693
20
-1.732778401224905
30
0
10
-21.029491598200536
20
-1.7920732802219437
30
0
10
-21.045519164606972
20
-1.8839246892464543
30
0
10
-21.049742990686365
20
-1.9230532781343248
30
0
10
-21.054191600126298
20
-1.974993805056366
30
0
10
-21.05468982593078
20
-1.9877576824266117
30
0
10
-21.054691776148026
20
-1.9878076443786621
30
0
0
SPLINE
5
129
100
AcDbEntity
8
0
100
AcDbSpline
70
0
71
3
72
14
73
10
74
0
42
0.000000001
43
0.0000000001
44
0.0000000001
40
-0.33810236405424537
40
-0.33810236405424537
40
-0.33810236405424537
40
-0.33810236405424537
40
-0.31892710750038822
40
-0.31892710750038822
40
-0.29975185094653112
40
-0.29975185094653112
40
-0.27964844642646475
40
-0.27964844642646475
40
-0.25954612517579484
40
-0.25954612517579484
40
-0.25954612517579484
40
-0.25954612517579484
10
-18.517949089424775
20
-1.9988763426626752
30
0
10
-18.517950603347348
20
-1.9988263655875462
30
0
10
-18.518337168801391
20
-1.9860652039029822
30
0
10
-18.522331013545347
20
-1.9340987333502815
30
0
10
-18.526211187474484
20
-1.8949392048379377
30
0
10
-18.541441842848513
20
-1.8029197463204627
30
0
10
-18.554226618669112
20
-1.7434947799790428
30
0
10
-18.593530847543423
20
-1.6170976265172377
30
0
10
-18.620323985795263
20
-1.5502606398365535
30
0
10
-18.650245224333343
20
-1.4903039240077118
30
0
0
LINE
5
130
100
AcDbEntity
8
0
100
AcDbLine
10
-18.517949089424775
20
-1.9988763426626752
30
0
11
-5.1053999403417105
21
-2.0573999999999715
31
0
0
LINE
5
131
100
AcDbEntity
8
0
100
AcDbLine
10
-5.1053999403417105
20
-2.0573999999999715
30
0
11
-5.1053999403417105
21
-1.5494048357938406
31
0
0
LINE
5
132
100
AcDbEntity
8
0
100
AcDbLine
10
-5.1053999403417105
20
-1.5494048357938406
30
0
11
-18.650245224333347
21
-1.4903039240077121
31
0
0
LINE
5
133
100
AcDbEntity
8
0
100
AcDbLine
10
-17.805399940341729
20
3.8607999999999763
30
0
11
-5.1053999403417105
21
4.1597428283973521
31
0
0
LWPOLYLINE
5
134
100
AcDbEntity
8
0
100
AcDbPolyline
90
8
70
1
43
0.0
10
-15.981315541470041
20
3.3527999999999807
10
-5.1053999403417034
20
3.3782000000000254
10
-5.1053999403417105
20
4.1597428283973521
10
-17.805399940341729
20
3.8607999999999763
10
-17.805399940341715
20
-0.050800000000023604
10
-5.1053999403417194
20
-0.34974282839730175
10
-5.105399940341691
20
0.43180000000002433
10
-15.98131554146998
20
0.45719999999998567
42
-0.99766729156981715
0
LWPOLYLINE
5
135
100
AcDbEntity
8
0
100
AcDbPolyline
90
4
70
1
43
0.0
10
-15.981964200756586
20
3.6305466005583935
42
0.99766729156980516
10
-15.981964200756574
20
0.1794533994415734
10
-5.1307999403417188
20
0.15411120460277805
10
-5.1307999403417339
20
3.6558887953972716
0
ENDSEC
0
SECTION
2
OBJECTS
0
DICTIONARY
5
C
100
AcDbDictionary
3
ACAD_GROUP
350
D
3
ACAD_MLINESTYLE
350
17
0
DICTIONARY
5
D
100
AcDbDictionary
0
DICTIONARY
5
1A
330
C
100
AcDbDictionary
0
DICTIONARY
5
17
100
AcDbDictionary
0
ENDSEC
0
EOF
