0
SECTION
2
HEADER
9
$INSUNITS
70
4
9
$ACADVER
1
AC1014
9
$HANDSEED
5
FFFF
0
ENDSEC
0
SECTION
2
TABLES
0
TABLE
2
VPORT
5
8
100
AcDbSymbolTable
0
ENDTAB
0
TABLE
2
LTYPE
5
5
100
AcDbSymbolTable
0
LTYPE
5
14
100
AcDbSymbolTableRecord
100
AcDbLinetypeTableRecord
2
BYBLOCK
70
0
0
LTYPE
5
15
100
AcDbSymbolTableRecord
100
AcDbLinetypeTableRecord
2
BYLAYER
70
0
0
LTYPE
5
16
100
AcDbSymbolTableRecord
100
AcDbLinetypeTableRecord
2
DASHED
70
0
3
Dashed __ __ __ __ __ __ __ __ __ __ __ __ __ _
72
65
73
2
40
0.75
49
0.5
74
0
49
-0.25
74
0
0
ENDTAB
0
TABLE
2
LAYER
5
2
100
AcDbSymbolTable
70
2
0
LAYER
5
50
100
AcDbSymbolTableRecord
100
AcDbLayerTableRecord
2
0
70
0
62
7
6
CONTINUOUS
0
ENDTAB
0
TABLE
2
STYLE
5
3
100
AcDbSymbolTable
70
1
0
STYLE
5
11
100
AcDbSymbolTableRecord
100
AcDbTextStyleTableRecord
2
STANDARD
70
0
0
ENDTAB
0
TABLE
2
VIEW
5
6
100
AcDbSymbolTable
70
0
0
ENDTAB
0
TABLE
2
UCS
5
7
100
AcDbSymbolTable
70
0
0
ENDTAB
0
TABLE
2
APPID
5
9
100
AcDbSymbolTable
70
2
0
APPID
5
12
100
AcDbSymbolTableRecord
100
AcDbRegAppTableRecord
2
ACAD
70
0
0
ENDTAB
0
TABLE
2
DIMSTYLE
5
A
100
AcDbSymbolTable
70
1
0
ENDTAB
0
TABLE
2
BLOCK_RECORD
5
1
100
AcDbSymbolTable
70
1
0
BLOCK_RECORD
5
1F
100
AcDbSymbolTableRecord
100
AcDbBlockTableRecord
2
*MODEL_SPACE
0
BLOCK_RECORD
5
1B
100
AcDbSymbolTableRecord
100
AcDbBlockTableRecord
2
*PAPER_SPACE
0
ENDTAB
0
ENDSEC
0
SECTION
2
BLOCKS
0
BLOCK
5
20
100
AcDbEntity
100
AcDbBlockBegin
2
*MODEL_SPACE
0
ENDBLK
5
21
100
AcDbEntity
100
AcDbBlockEnd
0
BLOCK
5
1C
100
AcDbEntity
100
AcDbBlockBegin
2
*PAPER_SPACE
0
ENDBLK
5
1D
100
AcDbEntity
100
AcDbBlockEnd
0
ENDSEC
0
SECTION
2
ENTITIES
0
LWPOLYLINE
5
100
100
AcDbEntity
8
0
100
AcDbPolyline
90
4
70
1
43
0.0
10
-48.89996662420495
20
-10.947400000000119
10
-45.59796662420495
20
-10.947400000000105
10
-45.59796662420495
20
-11.988800000000095
10
-48.899966624204943
20
-11.988800000000108
0
LINE
5
101
100
AcDbEntity
8
0
100
AcDbLine
10
-50.634375701725574
20
15.812562663064329
30
0
11
-50.597192335991672
21
24.334308280558329
31
0
0
LINE
5
102
100
AcDbEntity
8
0
100
AcDbLine
10
-50.597192335991672
20
24.334308280558329
30
0
11
-43.9007409124183
21
24.334308280558329
31
0
0
LINE
5
103
100
AcDbEntity
8
0
100
AcDbLine
10
-43.9007409124183
20
24.334308280558329
30
0
11
-43.863557546684397
21
15.812562663064327
31
0
0
ELLIPSE
5
104
100
AcDbEntity
8
0
100
AcDbEllipse
10
-43.286549089603525
20
14.681200028987494
30
0
11
-1.2700175347911835
21
-9.9462105218606212e-12
31
0.0
40
0.9999904807207346
41
5.1840101745052607
42
7.3910870030278861
0
LINE
5
105
100
AcDbEntity
8
0
100
AcDbLine
10
-43.853662700197305
20
13.544845283991645
30
0
11
-43.79456178841113
21
4.4408920985006262e-15
31
0
0
LINE
5
106
100
AcDbEntity
8
0
100
AcDbLine
10
-43.79456178841113
20
4.4408920985006262e-15
30
0
11
-44.99422379580767
21
3.7465217424932088e-15
31
0
0
LINE
5
107
100
AcDbEntity
8
0
100
AcDbLine
10
-44.99422379580767
20
3.7465217424932088e-15
30
0
11
-45.293166624204986
21
12.700000000000005
31
0
0
LINE
5
108
100
AcDbEntity
8
0
100
AcDbLine
10
-45.293166624204986
20
12.700000000000005
30
0
11
-49.204766624204993
21
12.700000000000003
31
0
0
LINE
5
109
100
AcDbEntity
8
0
100
AcDbLine
10
-49.204766624204993
20
12.700000000000003
30
0
11
-49.503709452602322
21
-2.4424906541753444e-14
31
0
0
LINE
5
110
100
AcDbEntity
8
0
100
AcDbLine
10
-49.503709452602322
20
-2.4424906541753444e-14
30
0
11
-50.703371459998863
21
4.2219037815759583e-15
31
0
0
LINE
5
111
100
AcDbEntity
8
0
100
AcDbLine
10
-50.703371459998863
20
4.2219037815759583e-15
30
0
11
-50.644270548212674
21
13.544845283991636
31
0
0
ELLIPSE
5
112
100
AcDbEntity
8
0
100
AcDbEllipse
10
-51.211384158806439
20
14.68120002898749
30
0
11
1.2700175347911811
21
7.1934125323025439e-12
31
0.0
40
0.9999904807207346
41
5.1752836113177914
42
7.3823604398404115
0
LINE
5
113
100
AcDbEntity
8
0
100
AcDbLine
10
-51.141774268583617
20
15.949291835806331
30
0
11
-51.1051875001978
21
24.334308280558332
31
0
0
ELLIPSE
5
114
100
AcDbEntity
8
0
100
AcDbEllipse
10
-50.597189905889117
20
24.333149094677307
30
0
11
-0.50799759432335967
21
0.0011591812912818879
31
0.0
40
0.0022231397220890407
41
5.4977902551876277
42
6.2831812431097873
0
ELLIPSE
5
115
100
AcDbEntity
8
0
100
AcDbEllipse
10
-50.62668363162765
20
24.333419701688278
30
0
11
0.46528366883701489
21
-0.00095482417550047511
31
0.0
40
0.0020439293252255417
41
1.5073745294799061
42
2.35835561657216
0
LINE
5
116
100
AcDbEntity
8
0
100
AcDbLine
10
-50.597192335987472
20
24.334308280558325
30
0
11
-50.634375701725574
21
15.812562663064329
31
0
0
SPLINE
5
117
100
AcDbEntity
8
0
100
AcDbSpline
70
0
71
3
72
14
73
10
74
0
42
0.000000001
43
0.0000000001
44
0.0000000001
40
0.16922233937838546
40
0.16922233937838546
40
0.16922233937838546
40
0.16922233937838546
40
0.18833801617399787
40
0.18833801617399787
40
0.2074536929696103
40
0.2074536929696103
40
0.22763213994735162
40
0.22763213994735162
40
0.24780950365564314
40
0.24780950365564314
40
0.24780950365564314
40
0.24780950365564314
10
-51.141774268583617
20
15.949291835806337
30
0
10
-51.141724306795886
20
15.949289881383956
30
0
10
-51.129045554165202
20
15.948793909582051
30
0
10
-51.077423143047781
20
15.944382580725627
30
0
10
-51.038527651966845
20
15.940197133709832
30
0
10
-50.946895557739104
20
15.92427525885137
30
0
10
-50.887479850054682
20
15.910996272900482
30
0
10
-50.761108293472297
20
15.870556338365663
30
0
10
-50.694291856175163
20
15.843119619186419
30
0
10
-50.634375701725567
20
15.812562663064329
30
0
0
LINE
5
118
100
AcDbEntity
8
0
100
AcDbLine
10
-43.863557546684397
20
15.812562663064327
30
0
11
-43.900740912418293
21
24.334308280558329
31
0
0
ELLIPSE
5
119
100
AcDbEntity
8
0
100
AcDbEllipse
10
-43.900742976961141
20
24.333149094677285
30
0
11
0.50799766150615
21
0.0011293555110808572
31
0.0
40
0.0022818521620207302
41
0.78539620191115578
42
1.5707871898135488
0
ELLIPSE
5
120
100
AcDbEntity
8
0
100
AcDbEllipse
10
-43.829536747079523
20
24.333419701688776
30
0
11
0.4367910036507105
21
0.00088873366087518634
31
0.0
40
0.0023192851296410496
41
6.2830325190249097
42
7.1340136061278274
0
LINE
5
121
100
AcDbEntity
8
0
100
AcDbLine
10
-43.39274574821215
20
24.334308280558332
30
0
11
-43.356158979826361
21
15.94929183580633
31
0
0
SPLINE
5
122
100
AcDbEntity
8
0
100
AcDbSpline
70
0
71
3
72
14
73
10
74
0
42
0.000000001
43
0.0000000001
44
0.0000000001
40
0.25951365621463346
40
0.25951365621463346
40
0.25951365621463346
40
0.25951365621463346
40
0.27969101992292589
40
0.27969101992292589
40
0.29986946690066735
40
0.29986946690066735
40
0.31898514369627901
40
0.31898514369627901
40
0.33810082049189066
40
0.33810082049189066
40
0.33810082049189066
40
0.33810082049189066
10
-43.863557546684405
20
15.812562663064323
30
0
10
-43.803641392234816
20
15.843119619186414
30
0
10
-43.736824954937674
20
15.87055633836566
30
0
10
-43.610453398355283
20
15.910996272900482
30
0
10
-43.551037690670867
20
15.924275258851363
30
0
10
-43.459405596443133
20
15.940197133709827
30
0
10
-43.420510105362197
20
15.944382580725627
30
0
10
-43.368887694244769
20
15.948793909582051
30
0
10
-43.356208941614099
20
15.949289881383953
30
0
10
-43.356158979826375
20
15.949291835806331
30
0
0
SPLINE
5
123
100
AcDbEntity
8
0
100
AcDbSpline
70
0
71
3
72
14
73
10
74
0
42
0.000000001
43
0.0000000001
44
0.0000000001
40
-0.24762270858827265
40
-0.24762270858827265
40
-0.24762270858827265
40
-0.24762270858827265
40
-0.22745589298699193
40
-0.22745589298699193
40
-0.20728799411629018
40
-0.20728799411629018
40
-0.18817695568904244
40
-0.18817695568904244
40
-0.16906591726179471
40
-0.16906591726179471
40
-0.16906591726179471
40
-0.16906591726179471
10
-50.644270548212674
20
13.544845283991636
30
0
10
-50.704419620673598
20
13.5148280505235
30
0
10
-50.771467883115889
20
13.487972877875926
30
0
10
-50.898198079913406
20
13.44863041512194
30
0
10
-50.95774369276122
20
13.435865751859751
30
0
10
-51.049542595602908
20
13.420738947261949
30
0
10
-51.088468755194555
20
13.416895083789997
30
0
10
-51.140116907686831
20
13.412935723663637
30
0
10
-51.152792989920158
20
13.412550667213486
30
0
10
-51.152842966867652
20
13.41254914908307
30
0
0
LINE
5
124
100
AcDbEntity
8
0
100
AcDbLine
10
-50.644270548212674
20
13.544845283991636
30
0
11
-50.703371459998863
21
4.4408920985006262e-15
31
0
0
LINE
5
125
100
AcDbEntity
8
0
100
AcDbLine
10
-51.211366624208942
20
4.2642028761537773e-15
30
0
11
-50.703371459998863
21
4.4408920985006262e-15
31
0
0
LINE
5
126
100
AcDbEntity
8
0
100
AcDbLine
10
-51.211366624208942
20
4.2642028761537773e-15
30
0
11
-51.152842966867652
21
13.41254914908307
31
0
0
SPLINE
5
127
100
AcDbEntity
8
0
100
AcDbSpline
70
0
71
3
72
14
73
10
74
0
42
0.000000001
43
0.0000000001
44
0.0000000001
40
-0.33810234157710295
40
-0.33810234157710295
40
-0.33810234157710295
40
-0.33810234157710295
40
-0.31899130314985602
40
-0.31899130314985602
40
-0.29988026472260904
40
-0.29988026472260904
40
-0.27971236585190695
40
-0.27971236585190695
40
-0.25954555025062565
40
-0.25954555025062565
40
-0.25954555025062565
40
-0.25954555025062565
10
-43.34509028154234
20
13.412549149083077
30
0
10
-43.345140258489828
20
13.412550667213491
30
0
10
-43.357816340723147
20
13.412935723663635
30
0
10
-43.409464493215417
20
13.416895083789996
30
0
10
-43.448390652807063
20
13.420738947261947
30
0
10
-43.540189555648752
20
13.435865751859746
30
0
10
-43.599735168496551
20
13.448630415121938
30
0
10
-43.726465365294061
20
13.487972877875924
30
0
10
-43.793513627736374
20
13.5148280505235
30
0
10
-43.853662700197305
20
13.544845283991636
30
0
0
LINE
5
128
100
AcDbEntity
8
0
100
AcDbLine
10
-43.34509028154234
20
13.412549149083077
30
0
11
-43.286566624204994
21
4.4408920985006262e-15
31
0
0
LINE
5
129
100
AcDbEntity
8
0
100
AcDbLine
10
-43.79456178841113
20
3.6466298138147324e-15
30
0
11
-43.286566624204994
21
4.4408920985006262e-15
31
0
0
LINE
5
130
100
AcDbEntity
8
0
100
AcDbLine
10
-43.79456178841113
20
3.6466298138147324e-15
30
0
11
-43.853662700197312
21
13.544845283991634
31
0
0
LWPOLYLINE
5
131
100
AcDbEntity
8
0
100
AcDbPolyline
90
4
70
1
43
0.0
10
-50.597192335991679
20
24.334308280558329
10
-50.597192335991679
20
24.587199999999999
10
-43.9007409124183
20
24.587199999999999
10
-43.9007409124183
20
24.334308280558329
0
LWPOLYLINE
5
132
100
AcDbEntity
8
0
100
AcDbPolyline
90
4
70
1
43
0.0
10
-45.52342002364658
20
10.876564260414845
42
0.99766729156979339
10
-48.974513224763399
20
10.876564260414838
10
-48.999855419602234
20
0.025400000000004065
10
-45.498077828807752
20
0.025400000000004308
0
LWPOLYLINE
5
133
100
AcDbEntity
8
0
100
AcDbPolyline
90
8
70
1
43
0.0
10
-48.69676662420499
20
10.875915601128321
10
-48.722166624204988
20
-2.4424906541753444e-14
10
-49.503709452602322
20
-2.3547295487222118e-14
10
-49.204766624204993
20
12.700000000000003
10
-45.293166624204986
20
12.700000000000003
10
-44.99422379580767
20
4.4408920985006262e-15
10
-45.775766624204991
20
-2.3857709084415091e-14
10
-45.801166624204996
20
10.875915601128321
42
0.99766729156979339
0
ENDSEC
0
SECTION
2
OBJECTS
0
DICTIONARY
5
C
100
AcDbDictionary
3
ACAD_GROUP
350
D
3
ACAD_MLINESTYLE
350
17
0
DICTIONARY
5
D
100
AcDbDictionary
0
DICTIONARY
5
1A
330
C
100
AcDbDictionary
0
DICTIONARY
5
17
100
AcDbDictionary
0
ENDSEC
0
EOF
